# Blender 4.0.2
# www.blender.org
mtllib mushroom2.mtl
o Circle
v -0.000000 3.079253 -0.704170
v -0.352085 3.079253 -0.609829
v -0.609829 3.079253 -0.352085
v -0.704170 3.079253 0.000000
v -0.609829 3.079253 0.352085
v -0.352085 3.079253 0.609829
v -0.000000 3.079253 0.704170
v 0.352085 3.079253 0.609829
v 0.609829 3.079253 0.352085
v 0.704170 3.079253 0.000000
v 0.609829 3.079253 -0.352085
v 0.352085 3.079253 -0.609829
v 0.000000 3.971086 -0.713735
v -0.356867 3.971086 -0.618113
v -0.618113 3.971086 -0.356868
v -0.713735 3.971086 0.000000
v -0.618113 3.971086 0.356868
v -0.356867 3.971086 0.618113
v 0.000000 3.971086 0.713735
v 0.356868 3.971086 0.618113
v 0.618113 3.971086 0.356868
v 0.713735 3.971086 0.000000
v 0.618113 3.971086 -0.356868
v 0.356868 3.971086 -0.618113
v -0.000000 5.131368 -1.116261
v -0.558131 5.131368 -0.966710
v -0.966711 5.131368 -0.558130
v -1.116261 5.131368 0.000000
v -0.966711 5.131368 0.558130
v -0.558131 5.131368 0.966710
v -0.000000 5.131368 1.116261
v 0.558130 5.131368 0.966710
v 0.966710 5.131368 0.558130
v 1.116261 5.131368 0.000000
v 0.966710 5.131368 -0.558130
v 0.558130 5.131368 -0.966710
v -0.000000 5.578039 -2.327571
v -1.163786 5.578039 -2.015736
v -2.015736 5.578039 -1.163786
v -2.327571 5.578039 0.000000
v -2.015736 5.578039 1.163786
v -1.163786 5.578039 2.015736
v -0.000000 5.578039 2.327571
v 1.163785 5.578039 2.015736
v 2.015736 5.578039 1.163786
v 2.327571 5.578039 0.000000
v 2.015736 5.578039 -1.163786
v 1.163785 5.578039 -2.015736
v -0.000000 5.131368 -2.936282
v -1.468141 5.131368 -2.542895
v -2.542895 5.131368 -1.468141
v -2.936282 5.131368 0.000000
v -2.542895 5.131368 1.468141
v -1.468141 5.131368 2.542895
v -0.000000 5.131368 2.936282
v 1.468141 5.131368 2.542895
v 2.542895 5.131368 1.468141
v 2.936281 5.131368 0.000000
v 2.542895 5.131368 -1.468141
v 1.468141 5.131368 -2.542895
v -0.000000 4.604526 -3.152537
v -1.576269 4.604526 -2.730178
v -2.730178 4.604526 -1.576269
v -3.152537 4.604526 0.000000
v -2.730178 4.604526 1.576269
v -1.576269 4.604526 2.730178
v -0.000000 4.604526 3.152537
v 1.576268 4.604526 2.730178
v 2.730177 4.604526 1.576269
v 3.152537 4.604526 0.000000
v 2.730177 4.604526 -1.576269
v 1.576268 4.604526 -2.730178
v -0.000000 4.711673 -5.993043
v -2.863256 4.711673 -5.190128
v -4.959306 4.711673 -2.996522
v -5.726512 4.711673 0.000000
v -4.959306 4.711673 2.996522
v -2.863256 4.711673 5.190128
v -0.000000 4.711673 5.993043
v 2.863256 4.711673 5.190128
v 4.959306 4.711673 2.996522
v 5.726512 4.711673 0.000000
v 4.959306 4.711673 -2.996522
v 2.863256 4.711673 -5.190128
v -0.000000 6.291750 -4.619448
v -2.309724 6.291750 -4.000560
v -4.000560 6.291750 -2.309724
v -4.619448 6.291750 0.000000
v -4.000560 6.291750 2.309724
v -2.309724 6.291750 4.000560
v -0.000000 6.291750 4.619448
v 2.309724 6.291750 4.000560
v 4.000560 6.291750 2.309724
v 4.619448 6.291750 0.000000
v 4.000560 6.291750 -2.309724
v 2.309724 6.291750 -4.000560
v -0.000000 7.582331 -2.954717
v -1.477359 7.582331 -2.558861
v -2.558861 7.582331 -1.477359
v -2.954717 7.582331 0.000000
v -2.558861 7.582331 1.477359
v -1.477359 7.582331 2.558861
v -0.000000 7.582331 2.954717
v 1.477358 7.582331 2.558861
v 2.558860 7.582331 1.477359
v 2.954717 7.582331 0.000000
v 2.558860 7.582331 -1.477359
v 1.477358 7.582331 -2.558861
v -0.000000 8.093597 -1.351377
v -0.675689 8.093597 -1.170327
v -1.170328 8.093597 -0.675689
v -1.351377 8.093597 0.000000
v -1.170328 8.093597 0.675689
v -0.675689 8.093597 1.170328
v -0.000000 8.093597 1.351377
v 0.675689 8.093597 1.170328
v 1.170327 8.093597 0.675689
v 1.351378 8.093597 0.000000
v 1.170327 8.093597 -0.675689
v 0.675689 8.093597 -1.170327
v 0.000000 0.000000 -0.686119
v -0.343060 0.000000 -0.594197
v -0.594197 0.000000 -0.343060
v -0.686119 0.000000 0.000000
v -0.594197 0.000000 0.343060
v -0.343060 0.000000 0.594197
v 0.000000 0.000000 0.686119
v 0.343060 0.000000 0.594197
v 0.594197 0.000000 0.343060
v 0.686119 0.000000 0.000000
v 0.594197 0.000000 -0.343060
v 0.343060 0.000000 -0.594197
v -0.000000 0.198387 -0.867891
v -0.433945 0.198387 -0.751616
v -0.751616 0.198387 -0.433945
v -0.867891 0.198387 0.000000
v -0.751616 0.198387 0.433945
v -0.433945 0.198387 0.751616
v -0.000000 0.198387 0.867891
v 0.433945 0.198387 0.751616
v 0.751616 0.198387 0.433945
v 0.867891 0.198387 0.000000
v 0.751616 0.198387 -0.433945
v 0.433945 0.198387 -0.751616
v -0.000000 2.251608 -0.817027
v -0.408513 2.251608 -0.707566
v -0.707566 2.251608 -0.408513
v -0.817027 2.251608 0.000000
v -0.707566 2.251608 0.408513
v -0.408513 2.251608 0.707566
v -0.000000 2.251608 0.817027
v 0.408513 2.251608 0.707566
v 0.707566 2.251608 0.408513
v 0.817027 2.251608 0.000000
v 0.707566 2.251608 -0.408513
v 0.408513 2.251608 -0.707566
v -0.000000 4.450049 -5.056981
v -0.000000 4.383853 -3.988055
v -1.994028 4.383853 -3.453757
v -2.528491 4.450049 -4.379475
v -3.453757 4.383853 -1.994027
v -4.379475 4.450049 -2.528491
v -3.988055 4.383853 0.000000
v -5.056982 4.450049 0.000000
v -3.453757 4.383853 1.994027
v -4.379475 4.450049 2.528491
v -1.994028 4.383853 3.453757
v -2.528491 4.450049 4.379475
v -0.000000 4.383853 3.988055
v -0.000000 4.450049 5.056981
v 1.994027 4.383853 3.453757
v 2.528490 4.450049 4.379475
v 3.453757 4.383853 1.994027
v 4.379475 4.450049 2.528491
v 3.988055 4.383853 0.000000
v 5.056981 4.450049 0.000000
v 3.453757 4.383853 -1.994027
v 4.379475 4.450049 -2.528491
v 1.994027 4.383853 -3.453757
v 2.528490 4.450049 -4.379475
v -0.000000 5.837183 -5.823980
v -0.000000 5.158659 -6.159312
v -2.942687 5.158620 -5.334109
v -2.809769 5.840340 -5.036472
v -5.096859 5.158543 -3.079634
v -4.853780 5.847054 -2.898912
v -5.885332 5.158504 0.000000
v -5.596753 5.850624 0.000000
v -5.096859 5.158543 3.079634
v -4.853780 5.847054 2.898912
v -2.942687 5.158620 5.334109
v -2.809769 5.840340 5.036472
v -0.000000 5.158659 6.159312
v -0.000000 5.837183 5.823980
v 2.942686 5.158621 5.334109
v 2.809768 5.840340 5.036472
v 5.096859 5.158543 3.079634
v 4.853780 5.847054 2.898912
v 5.885332 5.158504 0.000000
v 5.596753 5.850624 0.000000
v 5.096859 5.158543 -3.079634
v 4.853780 5.847054 -2.898912
v 2.942686 5.158621 -5.334109
v 2.809768 5.840340 -5.036472
v -0.000000 1.495137 -0.897434
v -0.000000 0.669687 -0.912766
v -0.456383 0.669687 -0.790478
v -0.448717 1.495137 -0.777201
v -0.790478 0.669687 -0.456383
v -0.777201 1.495137 -0.448717
v -0.912766 0.669687 0.000000
v -0.897434 1.495137 0.000000
v -0.790478 0.669687 0.456383
v -0.777201 1.495137 0.448717
v -0.456383 0.669687 0.790478
v -0.448717 1.495137 0.777201
v -0.000000 0.669687 0.912766
v -0.000000 1.495137 0.897434
v 0.456383 0.669687 0.790478
v 0.448717 1.495137 0.777201
v 0.790478 0.669687 0.456383
v 0.777201 1.495137 0.448717
v 0.912766 0.669687 0.000000
v 0.897434 1.495137 0.000000
v 0.790478 0.669687 -0.456383
v 0.777201 1.495137 -0.448717
v 0.456383 0.669687 -0.790478
v 0.448717 1.495137 -0.777201
vn -0.5295 -0.6627 -0.5295
vn -0.7071 -0.0104 0.7071
vn 0.7233 -0.6627 0.1938
vn -0.1938 -0.6627 0.7233
vn -0.0000 -1.0000 -0.0000
vn 0.7233 -0.6627 -0.1938
vn 0.1938 -0.6627 0.7233
vn -0.7233 -0.6627 -0.1938
vn -0.7233 -0.6627 0.1938
vn 0.5295 -0.6627 -0.5295
vn 0.5295 -0.6627 0.5295
vn -0.5295 -0.6627 0.5295
vn -0.6705 -0.3177 0.6705
vn 0.2588 -0.0104 -0.9659
vn -0.7071 -0.0104 -0.7071
vn 0.9659 -0.0104 0.2588
vn -0.2588 -0.0104 0.9659
vn -0.9659 -0.0104 -0.2588
vn 0.9659 -0.0104 -0.2588
vn 0.2588 -0.0104 0.9659
vn -0.9659 -0.0104 0.2588
vn 0.7071 -0.0104 -0.7071
vn -0.2588 -0.0104 -0.9659
vn 0.7071 -0.0104 0.7071
vn -0.0923 -0.9342 0.3445
vn 0.2454 -0.3177 -0.9159
vn -0.6705 -0.3177 -0.6705
vn 0.9159 -0.3177 0.2454
vn -0.2454 -0.3177 0.9159
vn -0.9159 -0.3177 -0.2454
vn 0.9159 -0.3177 -0.2454
vn 0.2454 -0.3177 0.9159
vn -0.9159 -0.3177 0.2454
vn 0.6705 -0.3177 -0.6705
vn -0.2454 -0.3177 -0.9159
vn 0.6705 -0.3177 0.6705
vn -0.5843 -0.7963 -0.1566
vn -0.3445 -0.9342 -0.0923
vn 0.3445 -0.9342 -0.0923
vn 0.0923 -0.9342 0.3445
vn -0.3445 -0.9342 0.0923
vn 0.2522 -0.9342 -0.2522
vn -0.0923 -0.9342 -0.3445
vn 0.2522 -0.9342 0.2522
vn -0.2522 -0.9342 0.2522
vn 0.0923 -0.9342 -0.3445
vn -0.2522 -0.9342 -0.2522
vn 0.3445 -0.9342 0.0923
vn 0.6573 -0.3686 0.6573
vn 0.1566 -0.7963 -0.5843
vn 0.5843 -0.7963 0.1566
vn -0.5843 -0.7963 0.1566
vn -0.1566 -0.7963 -0.5843
vn 0.5843 -0.7963 -0.1566
vn -0.4277 -0.7963 0.4277
vn 0.1566 -0.7963 0.5843
vn -0.4277 -0.7963 -0.4277
vn 0.4277 -0.7963 -0.4277
vn -0.1566 -0.7963 0.5843
vn 0.4277 -0.7963 0.4277
vn 0.3549 -0.9303 -0.0928
vn -0.8979 -0.3686 -0.2406
vn 0.2406 -0.3686 -0.8979
vn 0.8979 -0.3686 0.2406
vn -0.8979 -0.3686 0.2406
vn -0.2406 -0.3686 -0.8979
vn 0.8979 -0.3686 -0.2406
vn -0.6573 -0.3686 0.6573
vn 0.2406 -0.3686 0.8979
vn -0.6573 -0.3686 -0.6573
vn 0.6573 -0.3686 -0.6573
vn -0.2406 -0.3686 0.8979
vn -0.3549 -0.9303 -0.0928
vn 0.0749 -0.9591 0.2729
vn -0.3549 -0.9303 0.0928
vn 0.2292 -0.9473 -0.2237
vn 0.2292 -0.9473 0.2237
vn -0.2292 -0.9473 0.2237
vn 0.0749 -0.9591 -0.2729
vn 0.3549 -0.9303 0.0928
vn -0.0749 -0.9591 0.2729
vn 0.0683 -0.9646 0.2548
vn -0.2292 -0.9473 -0.2237
vn -0.2542 -0.3372 -0.9065
vn -0.2548 -0.9646 -0.0683
vn 0.0683 -0.9646 -0.2548
vn 0.2548 -0.9646 0.0683
vn -0.2548 -0.9646 0.0683
vn -0.0683 -0.9646 -0.2548
vn 0.2548 -0.9646 -0.0683
vn -0.1865 -0.9646 0.1865
vn -0.0683 -0.9646 0.2548
vn -0.1865 -0.9646 -0.1865
vn 0.1865 -0.9646 -0.1865
vn 0.1865 -0.9646 0.1865
vn -0.0968 0.9300 0.3545
vn -0.4051 0.9080 -0.1065
vn 0.4051 0.9080 -0.1065
vn 0.0968 0.9300 0.3545
vn -0.4051 0.9080 0.1065
vn 0.2797 0.9200 -0.2744
vn 0.2797 0.9200 0.2744
vn -0.6822 -0.3312 0.6518
vn 0.0968 0.9300 -0.3545
vn 0.4051 0.9080 0.1065
vn -0.2797 0.9200 0.2744
vn -0.6046 0.7799 -0.1620
vn -0.2797 0.9200 -0.2744
vn -0.6822 -0.3312 -0.6518
vn 0.9160 -0.3256 0.2345
vn -0.2542 -0.3372 0.9065
vn -0.9160 -0.3256 -0.2345
vn 0.9160 -0.3256 -0.2345
vn 0.2542 -0.3372 0.9065
vn -0.9160 -0.3256 0.2345
vn 0.6822 -0.3312 -0.6519
vn 0.2542 -0.3372 -0.9065
vn 0.6822 -0.3312 0.6519
vn -0.2217 0.9496 0.2217
vn 0.6046 0.7799 -0.1620
vn 0.1620 0.7799 0.6046
vn -0.6046 0.7799 0.1620
vn 0.4426 0.7799 -0.4426
vn -0.1620 0.7799 -0.6046
vn 0.4426 0.7799 0.4426
vn -0.4426 0.7799 0.4426
vn 0.1620 0.7799 -0.6046
vn -0.4426 0.7799 -0.4426
vn 0.6046 0.7799 0.1620
vn -0.1620 0.7799 0.6046
vn -0.0000 1.0000 -0.0000
vn 0.0811 0.9496 -0.3028
vn -0.2217 0.9496 -0.2217
vn 0.3028 0.9496 0.0811
vn -0.0811 0.9496 0.3028
vn -0.3028 0.9496 -0.0811
vn 0.3028 0.9496 -0.0811
vn 0.0811 0.9496 0.3028
vn -0.3028 0.9496 0.0811
vn 0.2217 0.9496 -0.2217
vn -0.0811 0.9496 -0.3028
vn 0.2217 0.9496 0.2217
vn 0.1938 -0.6627 -0.7233
vn -0.9609 0.1021 0.2575
vn -0.7034 0.1021 0.7034
vn -0.2575 0.1021 0.9609
vn 0.2575 0.1021 0.9609
vn 0.7034 0.1021 0.7034
vn 0.9609 0.1021 0.2575
vn 0.9609 0.1021 -0.2575
vn 0.7034 0.1021 -0.7034
vn -0.9609 0.1021 -0.2575
vn -0.1938 -0.6627 -0.7233
vn -0.2577 -0.0916 -0.9619
vn -0.7011 0.1306 -0.7011
vn -0.9577 0.1306 -0.2566
vn -0.9577 0.1306 0.2566
vn -0.7011 0.1306 0.7011
vn -0.2566 0.1306 0.9577
vn 0.2566 0.1306 0.9577
vn 0.7011 0.1306 0.7011
vn 0.9577 0.1306 0.2566
vn 0.9577 0.1306 -0.2566
vn 0.7011 0.1306 -0.7011
vn 0.2566 0.1306 -0.9577
vn -0.7034 0.1021 -0.7034
vn 0.2577 -0.0916 -0.9619
vn -0.7041 -0.0916 -0.7041
vn -0.9619 -0.0916 -0.2577
vn -0.9619 -0.0916 0.2577
vn -0.7041 -0.0916 0.7041
vn -0.2577 -0.0916 0.9619
vn 0.2577 -0.0916 0.9619
vn 0.7041 -0.0916 0.7041
vn 0.9619 -0.0916 0.2577
vn 0.9619 -0.0916 -0.2577
vn 0.7041 -0.0916 -0.7041
vn -0.2575 0.1021 -0.9609
vn -0.2566 0.1306 -0.9577
vn -0.0166 -0.9980 -0.0618
vn -0.0452 -0.9980 -0.0452
vn -0.0618 -0.9980 -0.0166
vn -0.0618 -0.9980 0.0166
vn -0.0452 -0.9980 0.0452
vn -0.0166 -0.9980 0.0618
vn 0.0166 -0.9980 0.0618
vn 0.0452 -0.9980 0.0452
vn 0.0618 -0.9980 0.0166
vn 0.0618 -0.9980 -0.0166
vn 0.0452 -0.9980 -0.0452
vn 0.0166 -0.9980 -0.0618
vn -0.0749 -0.9591 -0.2729
vn -0.2437 0.4286 -0.8700
vn -0.6615 0.4024 -0.6329
vn -0.8977 0.3758 -0.2302
vn -0.8977 0.3758 0.2302
vn -0.6615 0.4024 0.6329
vn -0.2437 0.4286 0.8700
vn 0.2437 0.4286 0.8700
vn 0.6615 0.4024 0.6329
vn 0.8977 0.3758 0.2302
vn 0.8977 0.3758 -0.2302
vn 0.6615 0.4024 -0.6329
vn 0.2437 0.4286 -0.8700
vn -0.0968 0.9300 -0.3545
vn -0.2588 0.0179 -0.9658
vn -0.7070 0.0179 -0.7070
vn -0.9658 0.0179 -0.2588
vn -0.9658 0.0179 0.2588
vn -0.7070 0.0179 0.7070
vn -0.2588 0.0179 0.9658
vn 0.2588 0.0179 0.9658
vn 0.7070 0.0179 0.7070
vn 0.9658 0.0179 0.2588
vn 0.9658 0.0179 -0.2588
vn 0.7070 0.0179 -0.7070
vn 0.2588 0.0179 -0.9658
vn 0.2575 0.1021 -0.9609
vt 0.000000 0.000000
s 0
usemtl Mushroom_Stem
f 135/1/1 134/1/1 122/1/1 123/1/1
f 5/1/2 6/1/2 18/1/2 17/1/2
f 142/1/3 141/1/3 129/1/3 130/1/3
f 139/1/4 138/1/4 126/1/4 127/1/4
f 122/1/5 121/1/5 132/1/5 131/1/5 130/1/5 129/1/5 128/1/5 127/1/5 126/1/5 125/1/5 124/1/5 123/1/5
f 143/1/6 142/1/6 130/1/6 131/1/6
f 140/1/7 139/1/7 127/1/7 128/1/7
f 136/1/8 135/1/8 123/1/8 124/1/8
f 137/1/9 136/1/9 124/1/9 125/1/9
f 144/1/10 143/1/10 131/1/10 132/1/10
f 141/1/11 140/1/11 128/1/11 129/1/11
f 138/1/12 137/1/12 125/1/12 126/1/12
f 17/1/13 18/1/13 30/1/13 29/1/13
f 12/1/14 1/1/14 13/1/14 24/1/14
f 2/1/15 3/1/15 15/1/15 14/1/15
f 9/1/16 10/1/16 22/1/16 21/1/16
f 6/1/17 7/1/17 19/1/17 18/1/17
f 3/1/18 4/1/18 16/1/18 15/1/18
f 10/1/19 11/1/19 23/1/19 22/1/19
f 7/1/20 8/1/20 20/1/20 19/1/20
f 4/1/21 5/1/21 17/1/21 16/1/21
f 11/1/22 12/1/22 24/1/22 23/1/22
f 1/1/23 2/1/23 14/1/23 13/1/23
f 8/1/24 9/1/24 21/1/24 20/1/24
f 30/1/25 31/1/25 43/1/25 42/1/25
f 24/1/26 13/1/26 25/1/26 36/1/26
f 14/1/27 15/1/27 27/1/27 26/1/27
f 21/1/28 22/1/28 34/1/28 33/1/28
f 18/1/29 19/1/29 31/1/29 30/1/29
f 15/1/30 16/1/30 28/1/30 27/1/30
f 22/1/31 23/1/31 35/1/31 34/1/31
f 19/1/32 20/1/32 32/1/32 31/1/32
f 16/1/33 17/1/33 29/1/33 28/1/33
f 23/1/34 24/1/34 36/1/34 35/1/34
f 13/1/35 14/1/35 26/1/35 25/1/35
f 20/1/36 21/1/36 33/1/36 32/1/36
f 27/1/38 28/1/38 40/1/38 39/1/38
f 34/1/39 35/1/39 47/1/39 46/1/39
f 31/1/40 32/1/40 44/1/40 43/1/40
f 28/1/41 29/1/41 41/1/41 40/1/41
f 35/1/42 36/1/42 48/1/42 47/1/42
f 25/1/43 26/1/43 38/1/43 37/1/43
f 32/1/44 33/1/44 45/1/44 44/1/44
f 29/1/45 30/1/45 42/1/45 41/1/45
f 36/1/46 25/1/46 37/1/46 48/1/46
f 26/1/47 27/1/47 39/1/47 38/1/47
f 33/1/48 34/1/48 46/1/48 45/1/48
f 133/1/143 144/1/143 132/1/143 121/1/143
f 149/1/144 148/1/144 212/1/144 214/1/144
f 150/1/145 149/1/145 214/1/145 216/1/145
f 151/1/146 150/1/146 216/1/146 218/1/146
f 152/1/147 151/1/147 218/1/147 220/1/147
f 153/1/148 152/1/148 220/1/148 222/1/148
f 154/1/149 153/1/149 222/1/149 224/1/149
f 155/1/150 154/1/150 224/1/150 226/1/150
f 156/1/151 155/1/151 226/1/151 228/1/151
f 148/1/152 147/1/152 210/1/152 212/1/152
f 134/1/153 133/1/153 121/1/153 122/1/153
f 207/1/154 206/1/154 133/1/154 134/1/154
f 146/1/155 147/1/155 3/1/155 2/1/155
f 147/1/156 148/1/156 4/1/156 3/1/156
f 148/1/157 149/1/157 5/1/157 4/1/157
f 149/1/158 150/1/158 6/1/158 5/1/158
f 150/1/159 151/1/159 7/1/159 6/1/159
f 151/1/160 152/1/160 8/1/160 7/1/160
f 152/1/161 153/1/161 9/1/161 8/1/161
f 153/1/162 154/1/162 10/1/162 9/1/162
f 154/1/163 155/1/163 11/1/163 10/1/163
f 155/1/164 156/1/164 12/1/164 11/1/164
f 156/1/165 145/1/165 1/1/165 12/1/165
f 147/1/166 146/1/166 208/1/166 210/1/166
f 206/1/167 227/1/167 144/1/167 133/1/167
f 209/1/168 207/1/168 134/1/168 135/1/168
f 211/1/169 209/1/169 135/1/169 136/1/169
f 213/1/170 211/1/170 136/1/170 137/1/170
f 215/1/171 213/1/171 137/1/171 138/1/171
f 217/1/172 215/1/172 138/1/172 139/1/172
f 219/1/173 217/1/173 139/1/173 140/1/173
f 221/1/174 219/1/174 140/1/174 141/1/174
f 223/1/175 221/1/175 141/1/175 142/1/175
f 225/1/176 223/1/176 142/1/176 143/1/176
f 227/1/177 225/1/177 143/1/177 144/1/177
f 146/1/178 145/1/178 205/1/178 208/1/178
f 145/1/179 146/1/179 2/1/179 1/1/179
f 206/1/206 207/1/206 208/1/206 205/1/206
f 207/1/207 209/1/207 210/1/207 208/1/207
f 209/1/208 211/1/208 212/1/208 210/1/208
f 211/1/209 213/1/209 214/1/209 212/1/209
f 213/1/210 215/1/210 216/1/210 214/1/210
f 215/1/211 217/1/211 218/1/211 216/1/211
f 217/1/212 219/1/212 220/1/212 218/1/212
f 219/1/213 221/1/213 222/1/213 220/1/213
f 221/1/214 223/1/214 224/1/214 222/1/214
f 223/1/215 225/1/215 226/1/215 224/1/215
f 225/1/216 227/1/216 228/1/216 226/1/216
f 227/1/217 206/1/217 205/1/217 228/1/217
f 145/1/218 156/1/218 228/1/218 205/1/218
usemtl Cap_Color
f 45/1/37 46/1/37 58/1/37 57/1/37
f 50/1/49 51/1/49 63/1/49 62/1/49
f 42/1/50 43/1/50 55/1/50 54/1/50
f 39/1/51 40/1/51 52/1/51 51/1/51
f 46/1/52 47/1/52 59/1/52 58/1/52
f 43/1/53 44/1/53 56/1/53 55/1/53
f 40/1/54 41/1/54 53/1/54 52/1/54
f 47/1/55 48/1/55 60/1/55 59/1/55
f 37/1/56 38/1/56 50/1/56 49/1/56
f 44/1/57 45/1/57 57/1/57 56/1/57
f 41/1/58 42/1/58 54/1/58 53/1/58
f 48/1/59 37/1/59 49/1/59 60/1/59
f 38/1/60 39/1/60 51/1/60 50/1/60
f 176/1/61 178/1/61 83/1/61 82/1/61
f 57/1/62 58/1/62 70/1/62 69/1/62
f 54/1/63 55/1/63 67/1/63 66/1/63
f 51/1/64 52/1/64 64/1/64 63/1/64
f 58/1/65 59/1/65 71/1/65 70/1/65
f 55/1/66 56/1/66 68/1/66 67/1/66
f 52/1/67 53/1/67 65/1/67 64/1/67
f 59/1/68 60/1/68 72/1/68 71/1/68
f 49/1/69 50/1/69 62/1/69 61/1/69
f 56/1/70 57/1/70 69/1/70 68/1/70
f 53/1/71 54/1/71 66/1/71 65/1/71
f 60/1/72 49/1/72 61/1/72 72/1/72
f 162/1/73 164/1/73 76/1/73 75/1/73
f 170/1/74 172/1/74 80/1/74 79/1/74
f 164/1/75 166/1/75 77/1/75 76/1/75
f 178/1/76 180/1/76 84/1/76 83/1/76
f 172/1/77 174/1/77 81/1/77 80/1/77
f 166/1/78 168/1/78 78/1/78 77/1/78
f 180/1/79 157/1/79 73/1/79 84/1/79
f 174/1/80 176/1/80 82/1/80 81/1/80
f 168/1/81 170/1/81 79/1/81 78/1/81
f 61/1/82 62/1/82 159/1/82 158/1/82
f 160/1/83 162/1/83 75/1/83 74/1/83
f 73/1/84 74/1/84 183/1/84 182/1/84
f 69/1/85 70/1/85 175/1/85 173/1/85
f 66/1/86 67/1/86 169/1/86 167/1/86
f 63/1/87 64/1/87 163/1/87 161/1/87
f 70/1/88 71/1/88 177/1/88 175/1/88
f 67/1/89 68/1/89 171/1/89 169/1/89
f 64/1/90 65/1/90 165/1/90 163/1/90
f 71/1/91 72/1/91 179/1/91 177/1/91
f 72/1/92 61/1/92 158/1/92 179/1/92
f 68/1/93 69/1/93 173/1/93 171/1/93
f 65/1/94 66/1/94 167/1/94 165/1/94
f 62/1/95 63/1/95 161/1/95 159/1/95
f 192/1/96 194/1/96 91/1/96 90/1/96
f 186/1/97 188/1/97 88/1/97 87/1/97
f 200/1/98 202/1/98 95/1/98 94/1/98
f 194/1/99 196/1/99 92/1/99 91/1/99
f 188/1/100 190/1/100 89/1/100 88/1/100
f 202/1/101 204/1/101 96/1/101 95/1/101
f 196/1/102 198/1/102 93/1/102 92/1/102
f 77/1/103 78/1/103 191/1/103 189/1/103
f 204/1/104 181/1/104 85/1/104 96/1/104
f 198/1/105 200/1/105 94/1/105 93/1/105
f 190/1/106 192/1/106 90/1/106 89/1/106
f 87/1/107 88/1/107 100/1/107 99/1/107
f 184/1/108 186/1/108 87/1/108 86/1/108
f 74/1/109 75/1/109 185/1/109 183/1/109
f 81/1/110 82/1/110 199/1/110 197/1/110
f 78/1/111 79/1/111 193/1/111 191/1/111
f 75/1/112 76/1/112 187/1/112 185/1/112
f 82/1/113 83/1/113 201/1/113 199/1/113
f 79/1/114 80/1/114 195/1/114 193/1/114
f 76/1/115 77/1/115 189/1/115 187/1/115
f 83/1/116 84/1/116 203/1/116 201/1/116
f 84/1/117 73/1/117 182/1/117 203/1/117
f 80/1/118 81/1/118 197/1/118 195/1/118
f 101/1/119 102/1/119 114/1/119 113/1/119
f 94/1/120 95/1/120 107/1/120 106/1/120
f 91/1/121 92/1/121 104/1/121 103/1/121
f 88/1/122 89/1/122 101/1/122 100/1/122
f 95/1/123 96/1/123 108/1/123 107/1/123
f 85/1/124 86/1/124 98/1/124 97/1/124
f 92/1/125 93/1/125 105/1/125 104/1/125
f 89/1/126 90/1/126 102/1/126 101/1/126
f 96/1/127 85/1/127 97/1/127 108/1/127
f 86/1/128 87/1/128 99/1/128 98/1/128
f 93/1/129 94/1/129 106/1/129 105/1/129
f 90/1/130 91/1/130 103/1/130 102/1/130
f 110/1/131 111/1/131 112/1/131 113/1/131 114/1/131 115/1/131 116/1/131 117/1/131 118/1/131 119/1/131 120/1/131 109/1/131
f 108/1/132 97/1/132 109/1/132 120/1/132
f 98/1/133 99/1/133 111/1/133 110/1/133
f 105/1/134 106/1/134 118/1/134 117/1/134
f 102/1/135 103/1/135 115/1/135 114/1/135
f 99/1/136 100/1/136 112/1/136 111/1/136
f 106/1/137 107/1/137 119/1/137 118/1/137
f 103/1/138 104/1/138 116/1/138 115/1/138
f 100/1/139 101/1/139 113/1/139 112/1/139
f 107/1/140 108/1/140 120/1/140 119/1/140
f 97/1/141 98/1/141 110/1/141 109/1/141
f 104/1/142 105/1/142 117/1/142 116/1/142
f 160/1/180 157/1/180 158/1/180 159/1/180
f 162/1/181 160/1/181 159/1/181 161/1/181
f 164/1/182 162/1/182 161/1/182 163/1/182
f 166/1/183 164/1/183 163/1/183 165/1/183
f 168/1/184 166/1/184 165/1/184 167/1/184
f 170/1/185 168/1/185 167/1/185 169/1/185
f 172/1/186 170/1/186 169/1/186 171/1/186
f 174/1/187 172/1/187 171/1/187 173/1/187
f 176/1/188 174/1/188 173/1/188 175/1/188
f 178/1/189 176/1/189 175/1/189 177/1/189
f 180/1/190 178/1/190 177/1/190 179/1/190
f 157/1/191 180/1/191 179/1/191 158/1/191
f 157/1/192 160/1/192 74/1/192 73/1/192
f 184/1/193 181/1/193 182/1/193 183/1/193
f 186/1/194 184/1/194 183/1/194 185/1/194
f 188/1/195 186/1/195 185/1/195 187/1/195
f 190/1/196 188/1/196 187/1/196 189/1/196
f 192/1/197 190/1/197 189/1/197 191/1/197
f 194/1/198 192/1/198 191/1/198 193/1/198
f 196/1/199 194/1/199 193/1/199 195/1/199
f 198/1/200 196/1/200 195/1/200 197/1/200
f 200/1/201 198/1/201 197/1/201 199/1/201
f 202/1/202 200/1/202 199/1/202 201/1/202
f 204/1/203 202/1/203 201/1/203 203/1/203
f 181/1/204 204/1/204 203/1/204 182/1/204
f 181/1/205 184/1/205 86/1/205 85/1/205
