# Blender 4.0.2
# www.blender.org
mtllib Crate.mtl
o Crate
v -0.852747 0.803311 0.639589
v -0.858562 -0.705101 -0.827481
v -0.852193 0.614914 0.833293
v -0.858007 -0.893498 -0.633778
v 0.858007 0.802368 0.633778
v 0.852193 -0.706043 -0.833293
v 0.858562 0.613971 0.827482
v 0.852747 -0.894440 -0.639589
v -0.947291 0.800140 0.801461
v -0.947291 -0.891269 -0.801461
v 0.947291 0.800140 0.801461
v 0.947291 -0.891269 -0.801461
v 0.639589 0.803311 0.852747
v -0.827481 -0.705101 0.858562
v 0.833293 0.614914 0.852193
v -0.633777 -0.893498 0.858007
v 0.633777 0.802368 -0.858007
v -0.833293 -0.706043 -0.852193
v 0.827481 0.613971 -0.858562
v -0.639589 -0.894440 -0.852747
v 0.801462 0.800139 0.947291
v -0.801461 -0.891269 0.947291
v 0.801461 0.800139 -0.947291
v -0.801462 -0.891269 -0.947291
v 0.639589 0.807182 -0.848875
v -0.827481 0.812997 0.659536
v 0.833293 0.806628 -0.660478
v -0.633777 0.812443 0.847933
v 0.633777 -0.903572 -0.847933
v -0.833293 -0.897758 0.660478
v 0.827481 -0.904126 -0.659536
v -0.639589 -0.898312 0.848875
v 0.801461 0.901726 -0.845704
v -0.801461 0.901726 0.845704
v 0.801461 -0.992855 -0.845704
v -0.801461 -0.992855 0.845704
v 1.000000 1.000000 -1.000000
v 1.000000 -1.000000 -1.000000
v 1.000000 1.000000 1.000000
v 1.000000 -1.000000 1.000000
v -1.000000 1.000000 -1.000000
v -1.000000 -1.000000 -1.000000
v -1.000000 1.000000 1.000000
v -1.000000 -1.000000 1.000000
v -1.000000 -1.000000 -1.000000
v -1.000000 -1.000000 1.000000
v 1.000000 -1.000000 -1.000000
v 1.000000 -1.000000 1.000000
v 0.794688 1.000000 -0.794688
v -0.794688 1.000000 -0.794688
v -0.794688 1.000000 0.794688
v 0.794688 1.000000 0.794688
v 0.794688 -0.794688 1.000000
v 0.794688 0.794688 1.000000
v -0.794688 0.794688 1.000000
v -0.794688 -0.794688 1.000000
v -1.000000 -0.794688 0.794688
v -1.000000 0.794688 0.794688
v -1.000000 0.794688 -0.794688
v -1.000000 -0.794688 -0.794688
v -0.794688 -1.000000 -0.794688
v 0.794688 -1.000000 -0.794688
v 0.794688 -1.000000 0.794688
v -0.794688 -1.000000 0.794688
v 1.000000 -0.794688 -0.794688
v 1.000000 0.794688 -0.794688
v 1.000000 0.794688 0.794688
v 1.000000 -0.794688 0.794688
v -0.794688 -0.794688 -1.000000
v -0.794688 0.794688 -1.000000
v 0.794688 0.794688 -1.000000
v 0.794688 -0.794688 -1.000000
v -1.000000 -1.000000 1.000000
v -1.000000 -1.000000 -1.000000
v -1.000000 -1.000000 -1.000000
v -1.000000 -1.000000 1.000000
v -1.000000 -1.000000 -1.000000
v 1.000000 -1.000000 -1.000000
v 1.000000 -1.000000 -1.000000
v -1.000000 -1.000000 -1.000000
v 1.000000 -1.000000 1.000000
v -1.000000 -1.000000 1.000000
v -1.000000 -1.000000 1.000000
v 1.000000 -1.000000 1.000000
v 1.000000 -1.000000 -1.000000
v 1.000000 -1.000000 1.000000
v 1.000000 -1.000000 1.000000
v 1.000000 -1.000000 -1.000000
v 0.701809 0.836376 -0.701809
v -0.701809 0.836376 -0.701809
v -0.701809 0.836376 0.701809
v 0.701809 0.836376 0.701809
v 0.701809 -0.748559 0.883125
v 0.701809 0.655060 0.883125
v -0.701809 0.655060 0.883125
v -0.701809 -0.748559 0.883125
v -0.883126 -0.748559 0.701809
v -0.883126 0.655060 0.701809
v -0.883126 0.655060 -0.701809
v -0.883126 -0.748559 -0.701809
v -0.701809 -0.929875 -0.701809
v 0.701809 -0.929875 -0.701809
v 0.701809 -0.929875 0.701809
v -0.701809 -0.929875 0.701809
v 0.883126 -0.748559 -0.701809
v 0.883126 0.655060 -0.701809
v 0.883126 0.655060 0.701809
v 0.883126 -0.748559 0.701809
v -0.701809 -0.748559 -0.883125
v -0.701809 0.655060 -0.883125
v 0.701809 0.655060 -0.883125
v 0.701809 -0.748559 -0.883125
v -0.883126 -0.929875 0.883125
v -0.883126 -0.929875 -0.883125
v -0.883126 -0.929875 -0.883125
v -0.883126 -0.929875 0.883125
v -0.883126 -0.929875 -0.883125
v 0.883126 -0.929875 -0.883125
v 0.883126 -0.929875 -0.883125
v -0.883126 -0.929875 -0.883125
v 0.883126 -0.929875 0.883125
v -0.883126 -0.929875 0.883125
v -0.883126 -0.929875 0.883125
v 0.883126 -0.929875 0.883125
v 0.883126 -0.929875 -0.883125
v 0.883126 -0.929875 0.883125
v 0.883126 -0.929875 0.883125
v 0.883126 -0.929875 -0.883125
vn -0.8294 -0.3860 0.4039
vn 0.0021 -0.6972 0.7169
vn 0.8294 0.3860 -0.4039
vn -0.0021 0.6972 -0.7169
vn 0.0003 0.9999 0.0164
vn -0.0016 -0.1539 -0.9881
vn -0.0003 -0.9999 -0.0164
vn 0.0016 0.1539 0.9881
vn 0.8241 -0.3929 0.4080
vn -0.8241 0.3929 -0.4080
vn 0.4039 -0.3860 0.8294
vn 0.7169 -0.6972 -0.0021
vn -0.4039 0.3860 -0.8294
vn -0.7169 0.6972 0.0021
vn 0.0164 0.9999 -0.0003
vn -0.9881 -0.1539 0.0016
vn -0.0164 -0.9999 0.0003
vn 0.9881 0.1539 -0.0016
vn 0.4080 -0.3929 -0.8241
vn -0.4080 0.3929 0.8241
vn 0.4039 0.8294 0.3860
vn 0.7169 -0.0021 0.6972
vn -0.4039 -0.8294 -0.3860
vn -0.7169 0.0021 -0.6972
vn 0.0164 -0.0003 -0.9999
vn -0.9881 0.0016 0.1539
vn -0.0164 0.0003 0.9999
vn 0.9881 -0.0016 -0.1539
vn 0.4080 -0.8241 0.3929
vn -0.4080 0.8241 -0.3929
vn -0.0000 1.0000 -0.0000
vn -0.0000 0.9302 0.3671
vn 0.6222 -0.0000 -0.7829
vn -0.7829 -0.0000 0.6222
vn 0.5145 0.8575 -0.0000
vn 0.5145 -0.8575 -0.0000
vn 0.7668 -0.6419 -0.0000
vn 0.3671 0.9302 -0.0000
vn -0.0000 -0.0000 1.0000
vn -1.0000 -0.0000 -0.0000
vn -0.0000 -1.0000 -0.0000
vn 1.0000 -0.0000 -0.0000
vn -0.0000 -0.0000 -1.0000
vn -0.0000 -0.6419 0.7668
vn -0.0000 -0.8575 -0.5145
vn -0.0000 -0.7981 0.6026
vn -0.5145 0.8575 -0.0000
vn 0.7829 -0.0000 0.6222
vn 0.6026 -0.7981 -0.0000
vn -0.6026 -0.7981 -0.0000
vn 0.7829 -0.0000 -0.6222
vn -0.0000 0.8575 0.5145
vn -0.0000 0.4936 0.8697
vn -0.0000 -0.7981 -0.6026
vn -0.0000 0.9302 -0.3671
vn -0.8697 0.4936 -0.0000
vn -0.0000 -0.6419 -0.7668
vn 0.8697 0.4936 -0.0000
vn -0.0000 -0.8575 0.5145
vn -0.6222 -0.0000 -0.7829
vn -0.7829 -0.0000 -0.6222
vn -0.0000 0.4936 -0.8697
vn -0.3671 0.9302 -0.0000
vn -0.7668 -0.6419 -0.0000
vn -0.5145 -0.8575 -0.0000
vn 0.6222 -0.0000 0.7829
vn -0.0000 0.8575 -0.5145
vn -0.6222 -0.0000 0.7829
vt 0.375000 0.125000
vt 0.625000 0.125000
vt 0.625000 0.250000
vt 0.375000 0.250000
vt 0.625000 0.500000
vt 0.375000 0.500000
vt 0.375000 0.625000
vt 0.625000 0.625000
vt 0.625000 0.750000
vt 0.375000 0.750000
vt 0.625000 1.000000
vt 0.375000 1.000000
vt 0.125000 0.625000
vt 0.125000 0.750000
vt 0.875000 0.625000
vt 0.875000 0.750000
vt 0.875000 0.500000
vt 0.125000 0.500000
vt 0.375000 0.000000
vt 0.625000 0.000000
vt 0.400664 0.974336
vt 0.400664 0.775664
vt 0.599336 0.724336
vt 0.400664 0.724336
vt 0.599336 0.775664
vt 0.599336 0.525664
vt 0.400664 0.525664
vt 0.849336 0.525664
vt 0.650664 0.525664
vt 0.849336 0.724336
vt 0.650664 0.724336
vt 0.599336 0.974336
vt 0.599336 0.025664
vt 0.400664 0.025664
vt 0.599336 0.224336
vt 0.400664 0.224336
vt 0.349336 0.525664
vt 0.150664 0.525664
vt 0.349336 0.724336
vt 0.150664 0.724336
vt 0.599336 0.275664
vt 0.400664 0.275664
vt 0.599336 0.474336
vt 0.400664 0.474336
s 0
usemtl Material
f 9/1/1 10/2/1 4/3/1 3/4/1
f 3/4/2 4/3/2 8/5/2 7/6/2
f 11/7/3 12/8/3 6/9/3 5/10/3
f 5/10/4 6/9/4 2/11/4 1/12/4
f 9/13/5 11/7/5 5/10/5 1/14/5
f 12/8/6 10/15/6 2/16/6 6/9/6
f 8/5/7 4/17/7 10/15/7 12/8/7
f 3/18/8 7/6/8 11/7/8 9/13/8
f 7/6/9 8/5/9 12/8/9 11/7/9
f 1/19/10 2/20/10 10/2/10 9/1/10
f 21/1/11 22/2/11 16/3/11 15/4/11
f 15/4/12 16/3/12 20/5/12 19/6/12
f 23/7/13 24/8/13 18/9/13 17/10/13
f 17/10/14 18/9/14 14/11/14 13/12/14
f 21/13/15 23/7/15 17/10/15 13/14/15
f 24/8/16 22/15/16 14/16/16 18/9/16
f 20/5/17 16/17/17 22/15/17 24/8/17
f 15/18/18 19/6/18 23/7/18 21/13/18
f 19/6/19 20/5/19 24/8/19 23/7/19
f 13/19/20 14/20/20 22/2/20 21/1/20
f 33/1/21 34/2/21 28/3/21 27/4/21
f 27/4/22 28/3/22 32/5/22 31/6/22
f 35/7/23 36/8/23 30/9/23 29/10/23
f 29/10/24 30/9/24 26/11/24 25/12/24
f 33/13/25 35/7/25 29/10/25 25/14/25
f 36/8/26 34/15/26 26/16/26 30/9/26
f 32/5/27 28/17/27 34/15/27 36/8/27
f 27/18/28 31/6/28 35/7/28 33/13/28
f 31/6/29 32/5/29 36/8/29 35/7/29
f 25/19/30 26/20/30 34/2/30 33/1/30
f 74/4/31 75/4/31 115/4/31 114/4/31
f 56/21/32 53/22/32 93/22/32 96/21/32
f 76/19/31 73/19/31 113/19/31 116/19/31
f 67/23/33 68/24/33 108/24/33 107/23/33
f 53/22/34 54/25/34 94/25/34 93/22/34
f 87/10/35 88/6/35 128/6/35 127/10/35
f 73/19/36 74/4/36 114/4/36 113/19/36
f 66/26/37 67/23/37 107/23/37 106/26/37
f 86/10/31 87/10/31 127/10/31 126/10/31
f 68/24/38 65/27/38 105/27/38 108/24/38
f 37/5/31 41/17/31 50/28/31 49/29/31
f 41/17/31 43/16/31 51/30/31 50/28/31
f 43/16/31 39/9/31 52/31/31 51/30/31
f 39/9/31 37/5/31 49/29/31 52/31/31
f 48/10/39 39/9/39 54/25/39 53/22/39
f 39/9/39 43/11/39 55/32/39 54/25/39
f 43/11/39 44/12/39 56/21/39 55/32/39
f 44/12/39 48/10/39 53/22/39 56/21/39
f 44/19/40 43/20/40 58/33/40 57/34/40
f 43/20/40 41/3/40 59/35/40 58/33/40
f 41/3/40 42/4/40 60/36/40 59/35/40
f 42/4/40 44/19/40 57/34/40 60/36/40
f 45/18/41 47/6/41 62/37/41 61/38/41
f 47/6/41 40/10/41 63/39/41 62/37/41
f 40/10/41 46/14/41 64/40/41 63/39/41
f 46/14/41 45/18/41 61/38/41 64/40/41
f 38/6/42 37/5/42 66/26/42 65/27/42
f 37/5/42 39/9/42 67/23/42 66/26/42
f 39/9/42 48/10/42 68/24/42 67/23/42
f 48/10/42 38/6/42 65/27/42 68/24/42
f 42/4/43 41/3/43 70/41/43 69/42/43
f 41/3/43 37/5/43 71/43/43 70/41/43
f 37/5/43 38/6/43 72/44/43 71/43/43
f 38/6/43 42/4/43 69/42/43 72/44/43
f 44/19/31 42/4/31 74/4/31 73/19/31
f 42/4/31 45/4/31 75/4/31 74/4/31
f 45/4/31 46/19/31 76/19/31 75/4/31
f 46/19/31 44/19/31 73/19/31 76/19/31
f 42/4/31 38/6/31 78/6/31 77/4/31
f 38/6/31 47/6/31 79/6/31 78/6/31
f 47/6/31 45/4/31 80/4/31 79/6/31
f 45/4/31 42/4/31 77/4/31 80/4/31
f 48/10/31 44/12/31 82/12/31 81/10/31
f 44/12/31 46/12/31 83/12/31 82/12/31
f 46/12/31 40/10/31 84/10/31 83/12/31
f 40/10/31 48/10/31 81/10/31 84/10/31
f 38/6/31 48/10/31 86/10/31 85/6/31
f 48/10/31 40/10/31 87/10/31 86/10/31
f 40/10/31 47/6/31 88/6/31 87/10/31
f 47/6/31 38/6/31 85/6/31 88/6/31
f 89/29/31 90/28/31 91/30/31 92/31/31
f 93/22/39 94/25/39 95/32/39 96/21/39
f 97/34/40 98/33/40 99/35/40 100/36/40
f 101/38/41 102/37/41 103/39/41 104/40/41
f 105/27/42 106/26/42 107/23/42 108/24/42
f 109/42/43 110/41/43 111/43/43 112/44/43
f 113/19/31 114/4/31 115/4/31 116/19/31
f 117/4/31 118/6/31 119/6/31 120/4/31
f 121/10/31 122/12/31 123/12/31 124/10/31
f 125/6/31 126/10/31 127/10/31 128/6/31
f 54/25/44 55/32/44 95/32/44 94/25/44
f 81/10/45 82/12/45 122/12/45 121/10/45
f 61/38/46 62/37/46 102/37/46 101/38/46
f 75/4/47 76/19/47 116/19/47 115/4/47
f 55/32/48 56/21/48 96/21/48 95/32/48
f 84/10/31 81/10/31 121/10/31 124/10/31
f 64/40/49 61/38/49 101/38/49 104/40/49
f 82/12/31 83/12/31 123/12/31 122/12/31
f 62/37/50 63/39/50 103/39/50 102/37/50
f 69/42/51 70/41/51 110/41/51 109/42/51
f 83/12/52 84/10/52 124/10/52 123/12/52
f 49/29/53 50/28/53 90/28/53 89/29/53
f 63/39/54 64/40/54 104/40/54 103/39/54
f 72/44/55 69/42/55 109/42/55 112/44/55
f 52/31/56 49/29/56 89/29/56 92/31/56
f 70/41/57 71/43/57 111/43/57 110/41/57
f 50/28/58 51/30/58 91/30/58 90/28/58
f 77/4/59 78/6/59 118/6/59 117/4/59
f 57/34/60 58/33/60 98/33/60 97/34/60
f 71/43/61 72/44/61 112/44/61 111/43/61
f 51/30/62 52/31/62 92/31/62 91/30/62
f 80/4/31 77/4/31 117/4/31 120/4/31
f 60/36/63 57/34/63 97/34/63 100/36/63
f 78/6/31 79/6/31 119/6/31 118/6/31
f 58/33/64 59/35/64 99/35/64 98/33/64
f 85/6/65 86/10/65 126/10/65 125/6/65
f 65/27/66 66/26/66 106/26/66 105/27/66
f 79/6/67 80/4/67 120/4/67 119/6/67
f 59/35/68 60/36/68 100/36/68 99/35/68
f 88/6/31 85/6/31 125/6/31 128/6/31
