# Blender 4.0.2
# www.blender.org
mtllib Mushroom1.mtl
o Circle
v -0.000000 3.079253 -0.594143
v -0.297072 3.079253 -0.514543
v -0.514543 3.079253 -0.297072
v -0.594143 3.079253 0.000000
v -0.514543 3.079253 0.297072
v -0.297072 3.079253 0.514543
v -0.000000 3.079253 0.594143
v 0.297072 3.079253 0.514543
v 0.514543 3.079253 0.297072
v 0.594143 3.079253 0.000000
v 0.514543 3.079253 -0.297072
v 0.297072 3.079253 -0.514543
v 0.000000 3.971086 -0.594143
v -0.297072 3.971086 -0.514543
v -0.514543 3.971086 -0.297072
v -0.594143 3.971086 0.000000
v -0.514543 3.971086 0.297072
v -0.297072 3.971086 0.514543
v 0.000000 3.971086 0.594143
v 0.297072 3.971086 0.514543
v 0.514543 3.971086 0.297072
v 0.594143 3.971086 0.000000
v 0.514543 3.971086 -0.297072
v 0.297072 3.971086 -0.514543
v -0.000000 5.131368 -1.116261
v -0.558131 5.131368 -0.966710
v -0.966711 5.131368 -0.558130
v -1.116261 5.131368 0.000000
v -0.966711 5.131368 0.558130
v -0.558131 5.131368 0.966710
v -0.000000 5.131368 1.116261
v 0.558130 5.131368 0.966710
v 0.966710 5.131368 0.558130
v 1.116261 5.131368 0.000000
v 0.966710 5.131368 -0.558130
v 0.558130 5.131368 -0.966710
v -0.000000 5.578039 -2.327571
v -1.163786 5.578039 -2.015736
v -2.015736 5.578039 -1.163786
v -2.327571 5.578039 0.000000
v -2.015736 5.578039 1.163786
v -1.163786 5.578039 2.015736
v -0.000000 5.578039 2.327571
v 1.163785 5.578039 2.015736
v 2.015736 5.578039 1.163786
v 2.327571 5.578039 0.000000
v 2.015736 5.578039 -1.163786
v 1.163785 5.578039 -2.015736
v -0.000000 5.131368 -2.936282
v -1.468141 5.131368 -2.542895
v -2.542895 5.131368 -1.468141
v -2.936282 5.131368 0.000000
v -2.542895 5.131368 1.468141
v -1.468141 5.131368 2.542895
v -0.000000 5.131368 2.936282
v 1.468141 5.131368 2.542895
v 2.542895 5.131368 1.468141
v 2.936281 5.131368 0.000000
v 2.542895 5.131368 -1.468141
v 1.468141 5.131368 -2.542895
v -0.000000 4.604526 -3.152537
v -1.576269 4.604526 -2.730178
v -2.730178 4.604526 -1.576269
v -3.152537 4.604526 0.000000
v -2.730178 4.604526 1.576269
v -1.576269 4.604526 2.730178
v -0.000000 4.604526 3.152537
v 1.576268 4.604526 2.730178
v 2.730177 4.604526 1.576269
v 3.152537 4.604526 0.000000
v 2.730177 4.604526 -1.576269
v 1.576268 4.604526 -2.730178
v -0.000000 4.833588 -4.226759
v -2.113380 4.833588 -3.660481
v -3.660481 4.833588 -2.113379
v -4.226759 4.833588 0.000000
v -3.660481 4.833588 2.113379
v -2.113380 4.833588 3.660481
v -0.000000 4.833588 4.226759
v 2.113379 4.833588 3.660481
v 3.660481 4.833588 2.113379
v 4.226759 4.833588 0.000000
v 3.660481 4.833588 -2.113379
v 2.113379 4.833588 -3.660481
v -0.000000 5.520774 -4.471008
v -2.235504 5.520774 -3.872007
v -3.872007 5.520774 -2.235504
v -4.471008 5.520774 0.000000
v -3.872007 5.520774 2.235504
v -2.235504 5.520774 3.872007
v -0.000000 5.520774 4.471008
v 2.235504 5.520774 3.872007
v 3.872007 5.520774 2.235504
v 4.471008 5.520774 0.000000
v 3.872007 5.520774 -2.235504
v 2.235504 5.520774 -3.872007
v -0.000000 6.691739 -4.012064
v -2.006032 6.691739 -3.474550
v -3.474550 6.691739 -2.006032
v -4.012064 6.691739 0.000000
v -3.474550 6.691739 2.006032
v -2.006032 6.691739 3.474550
v -0.000000 6.691739 4.012064
v 2.006032 6.691739 3.474550
v 3.474550 6.691739 2.006032
v 4.012064 6.691739 0.000000
v 3.474550 6.691739 -2.006032
v 2.006032 6.691739 -3.474550
v -0.000000 7.582331 -2.954717
v -1.477359 7.582331 -2.558861
v -2.558861 7.582331 -1.477359
v -2.954717 7.582331 0.000000
v -2.558861 7.582331 1.477359
v -1.477359 7.582331 2.558861
v -0.000000 7.582331 2.954717
v 1.477358 7.582331 2.558861
v 2.558860 7.582331 1.477359
v 2.954717 7.582331 0.000000
v 2.558860 7.582331 -1.477359
v 1.477358 7.582331 -2.558861
v -0.000000 8.093597 -1.351377
v -0.675689 8.093597 -1.170327
v -1.170328 8.093597 -0.675689
v -1.351377 8.093597 0.000000
v -1.170328 8.093597 0.675689
v -0.675689 8.093597 1.170328
v -0.000000 8.093597 1.351377
v 0.675689 8.093597 1.170328
v 1.170327 8.093597 0.675689
v 1.351378 8.093597 0.000000
v 1.170327 8.093597 -0.675689
v 0.675689 8.093597 -1.170327
v 0.000000 0.000000 -0.686119
v -0.343060 0.000000 -0.594197
v -0.594197 0.000000 -0.343060
v -0.686119 0.000000 0.000000
v -0.594197 0.000000 0.343060
v -0.343060 0.000000 0.594197
v 0.000000 0.000000 0.686119
v 0.343060 0.000000 0.594197
v 0.594197 0.000000 0.343060
v 0.686119 0.000000 0.000000
v 0.594197 0.000000 -0.343060
v 0.343060 0.000000 -0.594197
v -0.000000 0.198387 -0.867891
v -0.433945 0.198387 -0.751616
v -0.751616 0.198387 -0.433945
v -0.867891 0.198387 0.000000
v -0.751616 0.198387 0.433945
v -0.433945 0.198387 0.751616
v -0.000000 0.198387 0.867891
v 0.433945 0.198387 0.751616
v 0.751616 0.198387 0.433945
v 0.867891 0.198387 0.000000
v 0.751616 0.198387 -0.433945
v 0.433945 0.198387 -0.751616
v -0.000000 1.843566 -0.847816
v -0.000000 0.799778 -0.908839
v -0.454420 0.799778 -0.787078
v -0.423908 1.843566 -0.734230
v -0.787078 0.799778 -0.454420
v -0.734230 1.843566 -0.423908
v -0.908839 0.799778 0.000000
v -0.847816 1.843566 0.000000
v -0.787078 0.799778 0.454420
v -0.734230 1.843566 0.423908
v -0.454420 0.799778 0.787078
v -0.423908 1.843566 0.734230
v -0.000000 0.799778 0.908839
v -0.000000 1.843566 0.847816
v 0.454420 0.799778 0.787078
v 0.423908 1.843566 0.734230
v 0.787078 0.799778 0.454420
v 0.734230 1.843566 0.423908
v 0.908839 0.799778 0.000000
v 0.847816 1.843566 0.000000
v 0.787078 0.799778 -0.454420
v 0.734230 1.843566 -0.423908
v 0.454420 0.799778 -0.787078
v 0.423908 1.843566 -0.734230
v -0.000000 4.450049 -3.918007
v -0.000000 4.383853 -3.494431
v -1.747216 4.383853 -3.026266
v -1.959004 4.450049 -3.393094
v -3.026266 4.383853 -1.747215
v -3.393094 4.450049 -1.959003
v -3.494431 4.383853 0.000000
v -3.918007 4.450049 0.000000
v -3.026266 4.383853 1.747215
v -3.393094 4.450049 1.959003
v -1.747216 4.383853 3.026266
v -1.959004 4.450049 3.393094
v -0.000000 4.383853 3.494431
v -0.000000 4.450049 3.918007
v 1.747215 4.383853 3.026266
v 1.959003 4.450049 3.393094
v 3.026266 4.383853 1.747215
v 3.393094 4.450049 1.959003
v 3.494430 4.383853 0.000000
v 3.918006 4.450049 0.000000
v 3.026266 4.383853 -1.747215
v 3.393094 4.450049 -1.959003
v 1.747215 4.383853 -3.026266
v 1.959003 4.450049 -3.393094
vn -0.5295 -0.6627 -0.5295
vn -0.7071 -0.0000 0.7071
vn 0.7233 -0.6627 0.1938
vn -0.1938 -0.6627 0.7233
vn -0.0000 -1.0000 -0.0000
vn 0.7233 -0.6627 -0.1938
vn 0.1938 -0.6627 0.7233
vn -0.7233 -0.6627 -0.1938
vn -0.7233 -0.6627 0.1938
vn 0.5295 -0.6627 -0.5295
vn 0.5295 -0.6627 0.5295
vn -0.5295 -0.6627 0.5295
vn -0.6485 -0.3986 0.6485
vn 0.2588 -0.0000 -0.9659
vn -0.7071 -0.0000 -0.7071
vn 0.9659 -0.0000 0.2588
vn -0.2588 -0.0000 0.9659
vn -0.9659 -0.0000 -0.2588
vn 0.9659 -0.0000 -0.2588
vn 0.2588 -0.0000 0.9659
vn -0.9659 -0.0000 0.2588
vn 0.7071 -0.0000 -0.7071
vn -0.2588 -0.0000 -0.9659
vn 0.7071 -0.0000 0.7071
vn -0.0923 -0.9342 0.3445
vn 0.2374 -0.3986 -0.8859
vn -0.6485 -0.3986 -0.6485
vn 0.8859 -0.3986 0.2374
vn -0.2374 -0.3986 0.8859
vn -0.8859 -0.3986 -0.2374
vn 0.8859 -0.3986 -0.2374
vn 0.2374 -0.3986 0.8859
vn -0.8859 -0.3986 0.2374
vn 0.6485 -0.3986 -0.6485
vn -0.2374 -0.3986 -0.8859
vn 0.6485 -0.3986 0.6485
vn -0.5843 -0.7963 -0.1566
vn -0.3445 -0.9342 -0.0923
vn 0.3445 -0.9342 -0.0923
vn 0.0923 -0.9342 0.3445
vn -0.3445 -0.9342 0.0923
vn 0.2522 -0.9342 -0.2522
vn -0.0923 -0.9342 -0.3445
vn 0.2522 -0.9342 0.2522
vn -0.2522 -0.9342 0.2522
vn 0.0923 -0.9342 -0.3445
vn -0.2522 -0.9342 -0.2522
vn 0.3445 -0.9342 0.0923
vn 0.6573 -0.3686 0.6573
vn 0.1566 -0.7963 -0.5843
vn 0.5843 -0.7963 0.1566
vn -0.5843 -0.7963 0.1566
vn -0.1566 -0.7963 -0.5843
vn 0.5843 -0.7963 -0.1566
vn -0.4277 -0.7963 0.4277
vn 0.1566 -0.7963 0.5843
vn -0.4277 -0.7963 -0.4277
vn 0.4277 -0.7963 -0.4277
vn -0.1566 -0.7963 0.5843
vn 0.4277 -0.7963 0.4277
vn 0.7625 -0.6138 -0.2043
vn -0.8979 -0.3686 -0.2406
vn 0.2406 -0.3686 -0.8979
vn 0.8979 -0.3686 0.2406
vn -0.8979 -0.3686 0.2406
vn -0.2406 -0.3686 -0.8979
vn 0.8979 -0.3686 -0.2406
vn -0.6573 -0.3686 0.6573
vn 0.2406 -0.3686 0.8979
vn -0.6573 -0.3686 -0.6573
vn 0.6573 -0.3686 -0.6573
vn -0.2406 -0.3686 0.8979
vn -0.7625 -0.6138 -0.2043
vn 0.2043 -0.6138 0.7625
vn -0.7625 -0.6138 0.2043
vn 0.5582 -0.6138 -0.5582
vn 0.5582 -0.6138 0.5582
vn -0.5582 -0.6138 0.5582
vn 0.2043 -0.6138 -0.7625
vn 0.7625 -0.6138 0.2043
vn -0.2043 -0.6138 0.7625
vn 0.1438 -0.8315 0.5367
vn -0.5582 -0.6138 -0.5582
vn 0.2448 -0.3247 -0.9136
vn -0.5367 -0.8315 -0.1438
vn 0.1438 -0.8315 -0.5367
vn 0.5367 -0.8315 0.1438
vn -0.5367 -0.8315 0.1438
vn -0.1438 -0.8315 -0.5367
vn 0.5367 -0.8315 -0.1438
vn -0.3929 -0.8315 0.3929
vn -0.1438 -0.8315 0.5367
vn -0.3929 -0.8315 -0.3929
vn 0.3929 -0.8315 -0.3929
vn 0.3929 -0.8315 0.3929
vn -0.6613 0.3541 0.6613
vn -0.6688 -0.3247 -0.6688
vn 0.9136 -0.3247 0.2448
vn -0.2448 -0.3247 0.9136
vn -0.9136 -0.3247 -0.2448
vn 0.9136 -0.3247 -0.2448
vn 0.2448 -0.3247 0.9136
vn -0.9136 -0.3247 0.2448
vn 0.6688 -0.3247 -0.6688
vn -0.2448 -0.3247 -0.9136
vn 0.6688 -0.3247 0.6688
vn -0.6688 -0.3247 0.6688
vn -0.6348 0.7537 -0.1701
vn 0.2421 0.3541 -0.9034
vn -0.6613 0.3541 -0.6613
vn 0.9034 0.3541 0.2421
vn -0.2421 0.3541 0.9034
vn -0.9034 0.3541 -0.2421
vn 0.9034 0.3541 -0.2421
vn 0.2421 0.3541 0.9034
vn -0.9034 0.3541 0.2421
vn 0.6613 0.3541 -0.6613
vn -0.2421 0.3541 -0.9034
vn 0.6613 0.3541 0.6613
vn -0.2217 0.9496 0.2217
vn 0.6348 0.7537 -0.1701
vn 0.1701 0.7537 0.6348
vn -0.6348 0.7537 0.1701
vn 0.4647 0.7537 -0.4647
vn -0.1701 0.7537 -0.6348
vn 0.4647 0.7537 0.4647
vn -0.4647 0.7537 0.4647
vn 0.1701 0.7537 -0.6348
vn -0.4647 0.7537 -0.4647
vn 0.6348 0.7537 0.1701
vn -0.1701 0.7537 0.6348
vn -0.0000 1.0000 -0.0000
vn 0.0811 0.9496 -0.3028
vn -0.2217 0.9496 -0.2217
vn 0.3028 0.9496 0.0811
vn -0.0811 0.9496 0.3028
vn -0.3028 0.9496 -0.0811
vn 0.3028 0.9496 -0.0811
vn 0.0811 0.9496 0.3028
vn -0.3028 0.9496 0.0811
vn 0.2217 0.9496 -0.2217
vn -0.0811 0.9496 -0.3028
vn 0.2217 0.9496 0.2217
vn 0.1938 -0.6627 -0.7233
vn -0.9638 -0.0656 -0.2583
vn -0.9638 -0.0656 0.2583
vn -0.7056 -0.0656 0.7056
vn -0.2583 -0.0656 0.9638
vn 0.2583 -0.0656 0.9638
vn 0.7056 -0.0656 0.7056
vn 0.9638 -0.0656 0.2583
vn 0.9638 -0.0656 -0.2583
vn 0.7056 -0.0656 -0.7056
vn -0.7056 -0.0656 -0.7056
vn -0.1938 -0.6627 -0.7233
vn 0.2583 -0.0656 -0.9638
vn -0.6936 0.1945 -0.6936
vn -0.9475 0.1945 -0.2539
vn -0.9475 0.1945 0.2539
vn -0.6936 0.1945 0.6936
vn -0.2539 0.1945 0.9475
vn 0.2539 0.1945 0.9475
vn 0.6936 0.1945 0.6936
vn 0.9475 0.1945 0.2539
vn 0.9475 0.1945 -0.2539
vn 0.6936 0.1945 -0.6936
vn 0.2539 0.1945 -0.9475
vn -0.2583 -0.0656 -0.9638
vn -0.2584 0.0564 -0.9644
vn -0.7060 0.0564 -0.7060
vn -0.9644 0.0564 -0.2584
vn -0.9644 0.0564 0.2584
vn -0.7060 0.0564 0.7060
vn -0.2584 0.0564 0.9644
vn 0.2584 0.0564 0.9644
vn 0.7060 0.0564 0.7060
vn 0.9644 0.0564 0.2584
vn 0.9644 0.0564 -0.2584
vn 0.7060 0.0564 -0.7060
vn 0.2584 0.0564 -0.9644
vn -0.2539 0.1945 -0.9475
vn -0.0413 -0.9872 -0.1543
vn -0.1129 -0.9872 -0.1129
vn -0.1543 -0.9872 -0.0413
vn -0.1543 -0.9872 0.0413
vn -0.1129 -0.9872 0.1129
vn -0.0413 -0.9872 0.1543
vn 0.0413 -0.9872 0.1543
vn 0.1129 -0.9872 0.1129
vn 0.1543 -0.9872 0.0413
vn 0.1543 -0.9872 -0.0413
vn 0.1129 -0.9872 -0.1129
vn 0.0413 -0.9872 -0.1543
vn -0.2043 -0.6138 -0.7625
vt 0.000000 0.000000
s 0
usemtl Mushroom_Stem
f 147/1/1 146/1/1 134/1/1 135/1/1
f 5/1/2 6/1/2 18/1/2 17/1/2
f 154/1/3 153/1/3 141/1/3 142/1/3
f 151/1/4 150/1/4 138/1/4 139/1/4
f 134/1/5 133/1/5 144/1/5 143/1/5 142/1/5 141/1/5 140/1/5 139/1/5 138/1/5 137/1/5 136/1/5 135/1/5
f 155/1/6 154/1/6 142/1/6 143/1/6
f 152/1/7 151/1/7 139/1/7 140/1/7
f 148/1/8 147/1/8 135/1/8 136/1/8
f 149/1/9 148/1/9 136/1/9 137/1/9
f 156/1/10 155/1/10 143/1/10 144/1/10
f 153/1/11 152/1/11 140/1/11 141/1/11
f 150/1/12 149/1/12 137/1/12 138/1/12
f 17/1/13 18/1/13 30/1/13 29/1/13
f 12/1/14 1/1/14 13/1/14 24/1/14
f 2/1/15 3/1/15 15/1/15 14/1/15
f 9/1/16 10/1/16 22/1/16 21/1/16
f 6/1/17 7/1/17 19/1/17 18/1/17
f 3/1/18 4/1/18 16/1/18 15/1/18
f 10/1/19 11/1/19 23/1/19 22/1/19
f 7/1/20 8/1/20 20/1/20 19/1/20
f 4/1/21 5/1/21 17/1/21 16/1/21
f 11/1/22 12/1/22 24/1/22 23/1/22
f 1/1/23 2/1/23 14/1/23 13/1/23
f 8/1/24 9/1/24 21/1/24 20/1/24
f 30/1/25 31/1/25 43/1/25 42/1/25
f 24/1/26 13/1/26 25/1/26 36/1/26
f 14/1/27 15/1/27 27/1/27 26/1/27
f 21/1/28 22/1/28 34/1/28 33/1/28
f 18/1/29 19/1/29 31/1/29 30/1/29
f 15/1/30 16/1/30 28/1/30 27/1/30
f 22/1/31 23/1/31 35/1/31 34/1/31
f 19/1/32 20/1/32 32/1/32 31/1/32
f 16/1/33 17/1/33 29/1/33 28/1/33
f 23/1/34 24/1/34 36/1/34 35/1/34
f 13/1/35 14/1/35 26/1/35 25/1/35
f 20/1/36 21/1/36 33/1/36 32/1/36
f 27/1/38 28/1/38 40/1/38 39/1/38
f 34/1/39 35/1/39 47/1/39 46/1/39
f 31/1/40 32/1/40 44/1/40 43/1/40
f 28/1/41 29/1/41 41/1/41 40/1/41
f 35/1/42 36/1/42 48/1/42 47/1/42
f 25/1/43 26/1/43 38/1/43 37/1/43
f 32/1/44 33/1/44 45/1/44 44/1/44
f 29/1/45 30/1/45 42/1/45 41/1/45
f 36/1/46 25/1/46 37/1/46 48/1/46
f 26/1/47 27/1/47 39/1/47 38/1/47
f 33/1/48 34/1/48 46/1/48 45/1/48
f 145/1/144 156/1/144 144/1/144 133/1/144
f 163/1/145 161/1/145 147/1/145 148/1/145
f 165/1/146 163/1/146 148/1/146 149/1/146
f 167/1/147 165/1/147 149/1/147 150/1/147
f 169/1/148 167/1/148 150/1/148 151/1/148
f 171/1/149 169/1/149 151/1/149 152/1/149
f 173/1/150 171/1/150 152/1/150 153/1/150
f 175/1/151 173/1/151 153/1/151 154/1/151
f 177/1/152 175/1/152 154/1/152 155/1/152
f 179/1/153 177/1/153 155/1/153 156/1/153
f 161/1/154 159/1/154 146/1/154 147/1/154
f 146/1/155 145/1/155 133/1/155 134/1/155
f 158/1/156 179/1/156 156/1/156 145/1/156
f 160/1/157 162/1/157 3/1/157 2/1/157
f 162/1/158 164/1/158 4/1/158 3/1/158
f 164/1/159 166/1/159 5/1/159 4/1/159
f 166/1/160 168/1/160 6/1/160 5/1/160
f 168/1/161 170/1/161 7/1/161 6/1/161
f 170/1/162 172/1/162 8/1/162 7/1/162
f 172/1/163 174/1/163 9/1/163 8/1/163
f 174/1/164 176/1/164 10/1/164 9/1/164
f 176/1/165 178/1/165 11/1/165 10/1/165
f 178/1/166 180/1/166 12/1/166 11/1/166
f 180/1/167 157/1/167 1/1/167 12/1/167
f 159/1/168 158/1/168 145/1/168 146/1/168
f 160/1/169 157/1/169 158/1/169 159/1/169
f 162/1/170 160/1/170 159/1/170 161/1/170
f 164/1/171 162/1/171 161/1/171 163/1/171
f 166/1/172 164/1/172 163/1/172 165/1/172
f 168/1/173 166/1/173 165/1/173 167/1/173
f 170/1/174 168/1/174 167/1/174 169/1/174
f 172/1/175 170/1/175 169/1/175 171/1/175
f 174/1/176 172/1/176 171/1/176 173/1/176
f 176/1/177 174/1/177 173/1/177 175/1/177
f 178/1/178 176/1/178 175/1/178 177/1/178
f 180/1/179 178/1/179 177/1/179 179/1/179
f 157/1/180 180/1/180 179/1/180 158/1/180
f 157/1/181 160/1/181 2/1/181 1/1/181
usemtl Cap_Color
f 45/1/37 46/1/37 58/1/37 57/1/37
f 50/1/49 51/1/49 63/1/49 62/1/49
f 42/1/50 43/1/50 55/1/50 54/1/50
f 39/1/51 40/1/51 52/1/51 51/1/51
f 46/1/52 47/1/52 59/1/52 58/1/52
f 43/1/53 44/1/53 56/1/53 55/1/53
f 40/1/54 41/1/54 53/1/54 52/1/54
f 47/1/55 48/1/55 60/1/55 59/1/55
f 37/1/56 38/1/56 50/1/56 49/1/56
f 44/1/57 45/1/57 57/1/57 56/1/57
f 41/1/58 42/1/58 54/1/58 53/1/58
f 48/1/59 37/1/59 49/1/59 60/1/59
f 38/1/60 39/1/60 51/1/60 50/1/60
f 200/1/61 202/1/61 83/1/61 82/1/61
f 57/1/62 58/1/62 70/1/62 69/1/62
f 54/1/63 55/1/63 67/1/63 66/1/63
f 51/1/64 52/1/64 64/1/64 63/1/64
f 58/1/65 59/1/65 71/1/65 70/1/65
f 55/1/66 56/1/66 68/1/66 67/1/66
f 52/1/67 53/1/67 65/1/67 64/1/67
f 59/1/68 60/1/68 72/1/68 71/1/68
f 49/1/69 50/1/69 62/1/69 61/1/69
f 56/1/70 57/1/70 69/1/70 68/1/70
f 53/1/71 54/1/71 66/1/71 65/1/71
f 60/1/72 49/1/72 61/1/72 72/1/72
f 186/1/73 188/1/73 76/1/73 75/1/73
f 194/1/74 196/1/74 80/1/74 79/1/74
f 188/1/75 190/1/75 77/1/75 76/1/75
f 202/1/76 204/1/76 84/1/76 83/1/76
f 196/1/77 198/1/77 81/1/77 80/1/77
f 190/1/78 192/1/78 78/1/78 77/1/78
f 204/1/79 181/1/79 73/1/79 84/1/79
f 198/1/80 200/1/80 82/1/80 81/1/80
f 192/1/81 194/1/81 79/1/81 78/1/81
f 61/1/82 62/1/82 183/1/82 182/1/82
f 184/1/83 186/1/83 75/1/83 74/1/83
f 84/1/84 73/1/84 85/1/84 96/1/84
f 69/1/85 70/1/85 199/1/85 197/1/85
f 66/1/86 67/1/86 193/1/86 191/1/86
f 63/1/87 64/1/87 187/1/87 185/1/87
f 70/1/88 71/1/88 201/1/88 199/1/88
f 67/1/89 68/1/89 195/1/89 193/1/89
f 64/1/90 65/1/90 189/1/90 187/1/90
f 71/1/91 72/1/91 203/1/91 201/1/91
f 72/1/92 61/1/92 182/1/92 203/1/92
f 68/1/93 69/1/93 197/1/93 195/1/93
f 65/1/94 66/1/94 191/1/94 189/1/94
f 62/1/95 63/1/95 185/1/95 183/1/95
f 89/1/96 90/1/96 102/1/96 101/1/96
f 74/1/97 75/1/97 87/1/97 86/1/97
f 81/1/98 82/1/98 94/1/98 93/1/98
f 78/1/99 79/1/99 91/1/99 90/1/99
f 75/1/100 76/1/100 88/1/100 87/1/100
f 82/1/101 83/1/101 95/1/101 94/1/101
f 79/1/102 80/1/102 92/1/102 91/1/102
f 76/1/103 77/1/103 89/1/103 88/1/103
f 83/1/104 84/1/104 96/1/104 95/1/104
f 73/1/105 74/1/105 86/1/105 85/1/105
f 80/1/106 81/1/106 93/1/106 92/1/106
f 77/1/107 78/1/107 90/1/107 89/1/107
f 99/1/108 100/1/108 112/1/108 111/1/108
f 96/1/109 85/1/109 97/1/109 108/1/109
f 86/1/110 87/1/110 99/1/110 98/1/110
f 93/1/111 94/1/111 106/1/111 105/1/111
f 90/1/112 91/1/112 103/1/112 102/1/112
f 87/1/113 88/1/113 100/1/113 99/1/113
f 94/1/114 95/1/114 107/1/114 106/1/114
f 91/1/115 92/1/115 104/1/115 103/1/115
f 88/1/116 89/1/116 101/1/116 100/1/116
f 95/1/117 96/1/117 108/1/117 107/1/117
f 85/1/118 86/1/118 98/1/118 97/1/118
f 92/1/119 93/1/119 105/1/119 104/1/119
f 113/1/120 114/1/120 126/1/120 125/1/120
f 106/1/121 107/1/121 119/1/121 118/1/121
f 103/1/122 104/1/122 116/1/122 115/1/122
f 100/1/123 101/1/123 113/1/123 112/1/123
f 107/1/124 108/1/124 120/1/124 119/1/124
f 97/1/125 98/1/125 110/1/125 109/1/125
f 104/1/126 105/1/126 117/1/126 116/1/126
f 101/1/127 102/1/127 114/1/127 113/1/127
f 108/1/128 97/1/128 109/1/128 120/1/128
f 98/1/129 99/1/129 111/1/129 110/1/129
f 105/1/130 106/1/130 118/1/130 117/1/130
f 102/1/131 103/1/131 115/1/131 114/1/131
f 122/1/132 123/1/132 124/1/132 125/1/132 126/1/132 127/1/132 128/1/132 129/1/132 130/1/132 131/1/132 132/1/132 121/1/132
f 120/1/133 109/1/133 121/1/133 132/1/133
f 110/1/134 111/1/134 123/1/134 122/1/134
f 117/1/135 118/1/135 130/1/135 129/1/135
f 114/1/136 115/1/136 127/1/136 126/1/136
f 111/1/137 112/1/137 124/1/137 123/1/137
f 118/1/138 119/1/138 131/1/138 130/1/138
f 115/1/139 116/1/139 128/1/139 127/1/139
f 112/1/140 113/1/140 125/1/140 124/1/140
f 119/1/141 120/1/141 132/1/141 131/1/141
f 109/1/142 110/1/142 122/1/142 121/1/142
f 116/1/143 117/1/143 129/1/143 128/1/143
f 184/1/182 181/1/182 182/1/182 183/1/182
f 186/1/183 184/1/183 183/1/183 185/1/183
f 188/1/184 186/1/184 185/1/184 187/1/184
f 190/1/185 188/1/185 187/1/185 189/1/185
f 192/1/186 190/1/186 189/1/186 191/1/186
f 194/1/187 192/1/187 191/1/187 193/1/187
f 196/1/188 194/1/188 193/1/188 195/1/188
f 198/1/189 196/1/189 195/1/189 197/1/189
f 200/1/190 198/1/190 197/1/190 199/1/190
f 202/1/191 200/1/191 199/1/191 201/1/191
f 204/1/192 202/1/192 201/1/192 203/1/192
f 181/1/193 204/1/193 203/1/193 182/1/193
f 181/1/194 184/1/194 74/1/194 73/1/194
